<svg xmlns="http://www.w3.org/2000/svg" viewBox="0 0 400 400"><defs><style>.cls-1{fill:#55acee;}.cls-2{fill:#f1f2f2;}</style></defs><title>Asset 2</title><g id="Layer_2" data-name="Layer 2"><g id="Capa_1" data-name="Capa 1"><circle class="cls-1" cx="200" cy="200" r="200"/><path class="cls-2" d="M322.51,143.73a95.13,95.13,0,0,1-27.46,7.52,47.89,47.89,0,0,0,21-26.44,95.62,95.62,0,0,1-30.36,11.6A47.85,47.85,0,0,0,204.25,180a135.74,135.74,0,0,1-98.54-50,47.88,47.88,0,0,0,14.79,63.83,47.52,47.52,0,0,1-21.65-6v.61a47.83,47.83,0,0,0,38.35,46.87,47.57,47.57,0,0,1-12.59,1.68,48.44,48.44,0,0,1-9-.85,47.86,47.86,0,0,0,44.66,33.2A96.53,96.53,0,0,1,89.49,289.2a135.23,135.23,0,0,0,73.28,21.48c87.93,0,136-72.84,136-136,0-2.07-.05-4.14-.14-6.18a97,97,0,0,0,23.86-24.75Z"/></g></g></svg>