<svg xmlns="http://www.w3.org/2000/svg" viewBox="0 0 400 400"><defs><style>.cls-1{fill:#475993;}</style></defs><title>Asset 3</title><g id="Layer_2" data-name="Layer 2"><g id="Layer_1-2" data-name="Layer 1"><path class="cls-1" d="M346.1,0H53.9A53.9,53.9,0,0,0,0,53.9V346.1A53.9,53.9,0,0,0,53.9,400H198l.25-142.94H161.12a8.76,8.76,0,0,1-8.76-8.73l-.18-46.07a8.76,8.76,0,0,1,8.76-8.8H198V148.94c0-51.66,31.56-79.8,77.64-79.8h37.82a8.77,8.77,0,0,1,8.77,8.77v38.85a8.76,8.76,0,0,1-8.76,8.76H290.27c-25.06,0-29.92,11.91-29.92,29.39v38.54h55.08a8.76,8.76,0,0,1,8.7,9.8l-5.46,46.07a8.77,8.77,0,0,1-8.7,7.73H260.6L260.35,400H346.1A53.9,53.9,0,0,0,400,346.1V53.9A53.9,53.9,0,0,0,346.1,0Z"/></g></g></svg>