<svg xmlns="http://www.w3.org/2000/svg" viewBox="0 0 400 400"><defs><style>.cls-1{fill:#dc4e41;}.cls-2{fill:#fff;}</style></defs><title>Asset 1</title><g id="Layer_2" data-name="Layer 2"><g id="Capa_1" data-name="Capa 1"><circle id="_Path_" data-name="&lt;Path&gt;" class="cls-1" cx="200" cy="200" r="200"/><path class="cls-1" d="M69.63,209c-.71,34.41,23,67.25,55.6,78,30.71,10.32,68.47,2.6,88.9-23.7,14.92-18.43,18.31-43,16.7-65.95-26.3-.23-52.6-.15-78.86-.12-.05,9.37,0,18.71,0,28.08,15.74.43,31.49.23,47.24.55-4,13.62-13,26.3-26.77,31.22-26.54,11.69-60.4-3.58-68.75-31.42-10.08-26.66,6.42-58.83,33.67-66.58,16.89-5.94,34.29.75,48.74,9.53,7.33-6.85,14.18-14.18,20.91-21.58-16.42-13.74-37.53-22.16-59.22-20.31C105.27,127.13,68,166.43,69.63,209Z"/><path class="cls-1" d="M282,173.51c-.07,7.84-.16,15.72-.2,23.55-7.87.08-15.7.12-23.54.16v23.46c7.84,0,15.71.08,23.54.16.08,7.84.08,15.67.16,23.55,7.8,0,15.63,0,23.47,0,0-7.88.08-15.71.16-23.59l23.54-.11V197.22c-7.83,0-15.71-.08-23.54-.16-.05-7.83-.12-15.71-.16-23.54Z"/><path class="cls-2" d="M69.63,209c-1.61-42.52,35.63-81.82,78.2-82.33,21.69-1.85,42.8,6.58,59.21,20.32-6.73,7.4-13.58,14.72-20.9,21.58-14.45-8.79-31.86-15.48-48.75-9.53-27.24,7.75-43.74,39.92-33.66,66.58,8.35,27.83,42.21,43.11,68.74,31.42,13.74-4.92,22.8-17.6,26.78-31.22-15.75-.32-31.5-.12-47.25-.56,0-9.37-.08-18.7,0-28.07,26.26,0,52.56-.12,78.86.12,1.62,23-1.77,47.52-16.69,65.95-20.44,26.3-58.19,34-88.91,23.7C92.63,276.2,68.92,243.36,69.63,209Z"/><path class="cls-2" d="M282,173.51h23.43c0,7.84.11,15.72.16,23.55,7.83.08,15.71.12,23.54.16v23.46l-23.54.12c-.08,7.87-.12,15.71-.16,23.58-7.84,0-15.68,0-23.47,0-.07-7.87-.07-15.71-.16-23.54-7.83-.08-15.7-.12-23.54-.16V197.21c7.84,0,15.67-.08,23.54-.15C281.85,189.23,281.93,181.35,282,173.51Z"/></g></g></svg>