<?xml version="1.0" encoding="utf-8"?>
<!-- Generator: Adobe Illustrator 22.0.0, SVG Export Plug-In . SVG Version: 6.00 Build 0)  -->
<svg version="1.1" id="Layer_1" xmlns="http://www.w3.org/2000/svg" xmlns:xlink="http://www.w3.org/1999/xlink" x="0px" y="0px"
	 viewBox="0 0 15 11" style="enable-background:new 0 0 15 11;" xml:space="preserve">
<style type="text/css">
	.st0{fill:#FFFFFF;enable-background:new    ;}
	.st1{opacity:0.8;fill:#EFEFEF;enable-background:new    ;}
	.st2{fill:#E2E2E2;}
	.st3{opacity:0.6;fill:#FFFFFF;enable-background:new    ;}
</style>
<title>chat-menu</title>
<g id="Layer_2_1_">
	<g id="Layer_1-2">
		<path class="st0" d="M2.5,0h9C11.8,0,12,0.2,12,0.5l0,0C12,0.8,11.8,1,11.5,1h-9C2.2,1,2,0.8,2,0.5l0,0C2,0.2,2.2,0,2.5,0z"/>
		<path class="st1" d="M5.5,2h9C14.8,2,15,2.2,15,2.5l0,0C15,2.8,14.8,3,14.5,3h-9C5.2,3,5,2.8,5,2.5l0,0C5,2.2,5.2,2,5.5,2z"/>
		<path class="st2" d="M1.5,4h9C10.8,4,11,4.2,11,4.5l0,0C11,4.8,10.8,5,10.5,5h-9C1.2,5,1,4.8,1,4.5l0,0C1,4.2,1.2,4,1.5,4z"/>
		<path class="st2" d="M4.5,6h9C13.8,6,14,6.2,14,6.5l0,0C14,6.8,13.8,7,13.5,7h-9C4.2,7,4,6.8,4,6.5l0,0C4,6.2,4.2,6,4.5,6z"/>
		<path class="st1" d="M0.5,8h9C9.8,8,10,8.2,10,8.5l0,0C10,8.8,9.8,9,9.5,9h-9C0.2,9,0,8.8,0,8.5l0,0C0,8.2,0.2,8,0.5,8z"/>
		<path class="st3" d="M2.5,10h9c0.3,0,0.5,0.2,0.5,0.5l0,0c0,0.3-0.2,0.5-0.5,0.5h-9C2.2,11,2,10.8,2,10.5l0,0
			C2,10.2,2.2,10,2.5,10z"/>
	</g>
</g>
</svg>
