<?xml version="1.0" encoding="utf-8"?>
<!-- Generator: Adobe Illustrator 22.0.0, SVG Export Plug-In . SVG Version: 6.00 Build 0)  -->
<svg version="1.1" id="Layer_1" xmlns="http://www.w3.org/2000/svg" xmlns:xlink="http://www.w3.org/1999/xlink" x="0px" y="0px"
	 viewBox="0 0 449.1 475" style="enable-background:new 0 0 449.1 475;" xml:space="preserve">
<style type="text/css">
	.st0{fill:#EDED0F;}
	.st1{fill:#F78406;}
	.st2{fill:#E50000;}
	.st3{fill:#1B6644;}
	.st4{fill:#207A51;}
	.st5{fill:#22895D;}
</style>
<title>impact</title>
<path class="st0" d="M410.3,292.7c63.7,58.7,52.8,141.2-69.8,171.6C177.5,504.7,0,424.8,0,325.7c0-66.9,91.5-107,188.4-107
	C271.2,218.7,361.7,247.9,410.3,292.7z"/>
<path class="st1" d="M362.8,296.5c38.7,40.7,19.8,90.8-61.1,105.2c-96.1,17.1-201.1-26.1-213.6-83.1c-9.7-44.5,46-75.2,114.6-76.6
	C264,240.7,330.9,262.9,362.8,296.5z"/>
<path class="st2" d="M301,301.5c14.8,19,0.8,39-34.6,43.2c-37.9,4.5-79.5-11.3-89.3-33.2c-8.8-19.8,12.7-35.8,45.5-37.4
	C253.6,272.5,287.5,284.2,301,301.5z"/>
<path class="st3" d="M447.2,52.8c2.7-2.7,2.9-4.7-2.1-4.7h-40.5c-4.1,0-4.3,0.1-6.5,2.4l-36.8,36.9h47c3.7,0,5.1-0.3,7.3-2.6
	S444.6,55.5,447.2,52.8z"/>
<path class="st4" d="M396.3,1.9C399-0.8,401-1,401,4v40.5c0,4.1-0.1,4.3-2.4,6.5l-36.9,36.8v-47c0-3.7,0.3-5.1,2.5-7.3
	S393.6,4.6,396.3,1.9z"/>
<path class="st5" d="M254.3,132.2c-17.3,17.3-17.3,45.3,0,62.6s45.3,17.3,62.6,0c7.4-7.4,48-48,55.4-55.4
	c17.3-17.3,17.3-45.3,0-62.6c-17.3-17.3-45.3-17.3-62.6,0L254.3,132.2z"/>
</svg>
