<?xml version="1.0" encoding="utf-8"?>
<!-- Generator: Adobe Illustrator 22.0.0, SVG Export Plug-In . SVG Version: 6.00 Build 0)  -->
<svg version="1.1" id="Capa_1" xmlns="http://www.w3.org/2000/svg" xmlns:xlink="http://www.w3.org/1999/xlink" x="0px" y="0px"
	 viewBox="0 0 510 484.5" style="enable-background:new 0 0 510 484.5;" xml:space="preserve">
<style type="text/css">
	.st0{fill:#FFF27D;}
</style>
<g>
	<g id="star_1_">
		<g>
			<path class="st0" d="M255,115.4l30.2,71.2l10.6,25l27,2.3l77.3,6.6l-58.6,50.8l-20.5,17.8l6.1,26.4l17.6,75.5l-66.4-40L255,337
				l-23.2,14l-66.4,40l17.6-75.5l6.1-26.4l-20.5-17.8l-58.6-50.8l77.3-6.6l27-2.3l10.6-25L255,115.4 M255,0l-71.6,169L0,184.7
				l139.1,120.6L97.4,484.5l157.6-95l157.6,95l-41.7-179.2L510,184.7L326.6,169L255,0L255,0z"/>
		</g>
	</g>
</g>
</svg>
