<?xml version="1.0" standalone="no"?>
<!DOCTYPE svg PUBLIC "-//W3C//DTD SVG 20010904//EN"
 "http://www.w3.org/TR/2001/REC-SVG-20010904/DTD/svg10.dtd">
<svg version="1.0" xmlns="http://www.w3.org/2000/svg"
 width="700.000000pt" height="700.000000pt" viewBox="0 0 700.000000 700.000000"
 preserveAspectRatio="xMidYMid meet">
<metadata>
Created by potrace 1.11, written by Peter Selinger 2001-2013
</metadata>
<g transform="translate(0.000000,700.000000) scale(0.100000,-0.100000)"
fill="#000000" stroke="none">
<path d="M0 3500 l0 -3500 3500 0 3500 0 0 3500 0 3500 -3500 0 -3500 0 0
-3500z m3689 2450 c35 -5 65 -11 68 -13 7 -7 -82 -179 -144 -282 -97 -157
-193 -282 -382 -494 -140 -156 -425 -384 -612 -490 l-56 -31 -26 72 c-61 177
-78 377 -43 535 78 357 383 627 791 697 93 16 311 20 404 6z m1241 -108 c45
-24 83 -94 74 -137 -10 -46 -40 -81 -84 -99 -66 -26 -105 -21 -176 24 -19 12
-26 9 -68 -23 -26 -20 -63 -41 -82 -47 -19 -6 -34 -16 -34 -20 0 -5 24 -36 53
-69 29 -33 64 -76 78 -96 21 -31 29 -36 59 -34 78 4 100 -1 135 -32 19 -17 40
-48 46 -69 10 -33 9 -44 -10 -82 -12 -25 -33 -51 -46 -58 -17 -9 -24 -19 -20
-29 16 -40 45 -172 51 -232 l6 -66 -63 -48 c-116 -88 -233 -191 -336 -294 -94
-94 -102 -100 -108 -79 -32 105 -200 134 -268 45 -11 -14 -23 -12 -127 19
-137 42 -252 89 -340 139 -104 59 -104 57 -40 118 30 29 92 91 136 138 l80 86
50 -18 c122 -47 308 -84 473 -95 107 -7 111 -8 111 -30 0 -30 46 -83 87 -100
127 -54 250 67 188 185 -28 55 -117 85 -182 60 -33 -12 -83 -58 -83 -75 0 -22
-36 -25 -160 -14 -132 11 -272 38 -392 76 l-77 25 86 113 86 112 66 -12 c91
-18 312 -17 439 2 l105 15 26 -24 c14 -14 36 -30 48 -36 27 -14 110 -15 118
-1 6 10 -75 180 -104 219 -16 20 -20 22 -38 10 -30 -18 -54 -63 -56 -106 -2
-36 -4 -38 -42 -45 -123 -20 -308 -30 -403 -19 -155 17 -150 10 -82 118 32 51
75 126 96 166 l38 74 65 6 c57 5 154 26 200 43 9 3 11 8 5 13 -5 5 -39 1 -79
-9 -38 -11 -93 -19 -122 -19 l-52 -1 30 83 c17 45 34 85 37 89 4 4 37 -15 72
-43 112 -86 107 -83 148 -71 20 6 63 27 94 47 57 36 57 36 56 83 -2 60 23 99
77 123 51 24 111 24 155 1z m-39 -1312 c-11 -43 -31 -107 -45 -142 -16 -40
-22 -66 -16 -72 5 -5 252 -195 547 -421 296 -227 548 -427 561 -445 45 -66 19
-159 -56 -203 -43 -25 -125 -27 -169 -4 -17 9 -270 199 -563 422 l-531 405
-56 -42 c-77 -57 -212 -124 -311 -155 -45 -14 -85 -24 -87 -21 -6 5 67 116
140 213 125 166 347 393 515 528 82 66 85 67 88 42 2 -14 -6 -61 -17 -105z
m-1267 16 c39 -25 108 -60 152 -80 75 -32 274 -99 317 -108 15 -2 20 -14 22
-52 4 -64 42 -104 114 -120 l52 -12 -59 -79 c-32 -44 -86 -122 -120 -172 -44
-66 -70 -95 -88 -99 -44 -11 -324 4 -404 21 -121 27 -258 73 -365 125 -100 48
-269 153 -293 182 -11 13 6 26 122 92 l135 76 53 -39 c61 -47 228 -135 345
-181 l81 -33 -5 -52 c-7 -66 15 -107 72 -135 51 -25 88 -25 142 -1 90 41 101
170 19 220 -61 37 -141 35 -186 -5 -13 -11 -35 -5 -140 40 -139 59 -284 136
-332 176 l-31 26 89 66 c49 36 121 93 159 126 39 34 72 61 74 61 2 1 35 -19
75 -43z m-908 -1102 c61 -29 89 -103 64 -168 -8 -22 -5 -31 21 -61 17 -19 53
-49 80 -67 31 -20 48 -37 44 -45 -6 -17 122 -80 197 -97 50 -11 54 -14 65 -51
7 -22 33 -101 58 -176 25 -75 45 -139 45 -142 0 -15 -177 -6 -268 13 -142 29
-298 83 -292 101 2 8 4 33 4 57 0 32 -6 48 -26 69 l-27 27 -27 -25 c-32 -30
-144 -177 -144 -189 0 -5 18 -14 41 -20 44 -12 99 -1 132 28 15 14 28 12 130
-21 160 -53 235 -68 373 -74 l120 -6 57 -120 c32 -67 54 -124 50 -128 -12 -11
-203 -29 -306 -29 -51 0 -141 7 -202 15 -60 8 -111 15 -112 15 -2 0 -3 12 -3
26 0 17 -14 40 -39 65 -39 39 -58 45 -126 40 -99 -9 -156 -115 -106 -197 55
-91 221 -80 261 17 12 27 17 30 44 25 153 -29 366 -33 521 -11 55 7 100 13
101 12 9 -20 138 -227 166 -266 l38 -55 -55 -23 c-85 -36 -238 -71 -396 -91
l-144 -19 -17 32 c-45 85 -207 86 -258 3 l-18 -29 -85 129 c-92 139 -182 257
-260 339 l-49 52 17 56 c9 32 38 99 65 150 47 92 48 94 29 111 -11 9 -24 35
-31 56 -32 108 79 203 192 164 l43 -15 61 53 c34 29 83 67 109 85 l48 33 -46
30 c-25 16 -59 46 -75 66 l-29 36 -36 -17 c-108 -51 -233 22 -222 131 10 97
126 152 223 106z m1248 -120 c363 -58 654 -251 794 -529 94 -188 109 -434 38
-643 -36 -104 -137 -292 -157 -292 -5 0 -39 28 -77 63 -338 311 -613 743 -756
1186 -24 76 -47 159 -51 184 l-7 47 57 0 c32 0 103 -7 159 -16z m-813 -131 c0
-10 6 -53 13 -97 l13 -78 -41 6 c-50 8 -200 77 -189 87 13 12 183 99 193 99 6
0 10 -8 11 -17z m-700 -1026 c103 -128 230 -321 302 -457 61 -114 161 -340
153 -347 -7 -7 -118 53 -191 105 -38 27 -102 82 -141 121 l-71 72 -624 -311
-624 -312 -58 4 c-64 5 -98 25 -135 79 -19 27 -23 43 -19 76 9 83 29 97 357
259 165 81 300 151 300 155 0 3 -26 10 -57 13 -89 11 -178 47 -178 71 0 16 6
20 35 19 19 -1 60 -9 90 -18 30 -9 96 -19 145 -23 l90 -6 220 112 c121 61 211
109 200 106 -11 -2 -55 -14 -99 -25 -132 -33 -280 -46 -393 -32 -125 15 -207
41 -211 69 -5 31 19 34 89 11 82 -26 246 -34 364 -19 161 21 363 85 357 112
-8 30 -15 248 -8 264 8 23 15 17 107 -98z m1275 -269 c38 -46 97 -114 131
-152 35 -37 61 -72 58 -76 -16 -26 -346 -126 -478 -145 -40 -6 -52 -4 -70 13
-35 31 -63 42 -109 42 -56 0 -107 -28 -130 -71 -50 -93 17 -189 132 -189 92 0
160 67 146 145 l-6 32 49 7 c84 11 353 83 425 114 l70 30 80 -72 c45 -39 98
-85 119 -100 45 -34 50 -29 -87 -88 -198 -84 -413 -128 -631 -128 -166 0 -379
34 -404 64 -6 7 -26 52 -45 101 -19 50 -53 129 -75 178 -23 48 -41 91 -41 95
0 4 24 7 53 7 40 0 60 6 82 23 35 28 54 59 55 89 0 12 3 24 8 26 4 3 68 13
142 22 148 19 332 61 401 93 24 11 47 21 51 21 3 1 37 -36 74 -81z"/>
</g>
</svg>
