<?xml version="1.0" encoding="utf-8"?>
<!-- Generator: Adobe Illustrator 21.0.0, SVG Export Plug-In . SVG Version: 6.00 Build 0)  -->
<svg version="1.1" id="Layer_1" xmlns="http://www.w3.org/2000/svg" xmlns:xlink="http://www.w3.org/1999/xlink" x="0px" y="0px"
	 viewBox="0 0 161.9 180.5" style="enable-background:new 0 0 161.9 180.5;" xml:space="preserve">
<style type="text/css">
	.st0{fill:#FFFFFF;}
	.st1{fill:#EAEA36;}
	
		.st2{opacity:0.9;fill:none;stroke:#EAEA36;stroke-width:2;stroke-linecap:round;stroke-linejoin:round;stroke-miterlimit:10;enable-background:new    ;}
	
		.st3{opacity:0.9;fill:none;stroke:#EAEA36;stroke-width:1.75;stroke-linecap:round;stroke-linejoin:round;stroke-miterlimit:10;enable-background:new    ;}
	
		.st4{opacity:0.9;fill:none;stroke:#EAEA36;stroke-width:1.25;stroke-linecap:round;stroke-linejoin:round;stroke-miterlimit:10;enable-background:new    ;}
	
		.st5{opacity:0.9;fill:none;stroke:#DB2E3B;stroke-width:2;stroke-linecap:round;stroke-linejoin:round;stroke-miterlimit:10;enable-background:new    ;}
	
		.st6{opacity:0.9;fill:none;stroke:#DB2E3B;stroke-width:1.75;stroke-linecap:round;stroke-linejoin:round;stroke-miterlimit:10;enable-background:new    ;}
	
		.st7{opacity:0.9;fill:none;stroke:#DB2E3B;stroke-width:1.25;stroke-linecap:round;stroke-linejoin:round;stroke-miterlimit:10;enable-background:new    ;}
	.st8{fill:#DB2E3B;}
</style>
<g>
	<g>
		<path class="st0" d="M110.9,58.9c-6.3,8.2,0,0-6.3,8.2l36.5,30c1.9,1.5,4.3,1.6,6,0.4c0.5-0.3,0.8-0.7,1.1-1.1
			c1.6-2.4,1-5.9-1.4-7.8L110.9,58.9z"/>
		<path class="st1" d="M51.6,61.7c0,0-1.7-2-3.7-5.3c-2.2-3.8-3.2-6-3.2-6l8.3,1.7l-0.3-8c0.3-0.2,0.6-0.4,0.9-0.7l8.5,1.3l-0.6-7.7
			c0.2-0.1,0.4-0.3,0.4-0.3l8.9,0.8l-2.2-7.4l0,0l9.3-1l-2.1-7.3l9.2-1l-3.4-7l10-1.6l-5.2-6.3L93,6l-5.4-3.9
			C92.2,3.7,96.7,6,100.7,9c-3.2,9.4-9.8,20.3-18.9,30.3C72,49.9,61,57.8,51.6,61.7"/>
		<path class="st0" d="M60,61c-2.1,1.2-4,2.3-6.2,3.1c0.6,0.6,1.3,1.3,2,2c1.2,1.1,2.6,2.2,3.8,3.2c0.2-0.9,1.2-5.1,0.6-8.3
			C60.2,60.9,60,61,60,61z"/>
		<path class="st0" d="M43,46.8c8.2-4.4,16.5-11.2,24.2-19.4c7.7-8.5,13.8-17.6,17.3-26.1C71.5-2,58.1,1,49.4,10.5
			C40.4,20,38.5,33.8,43,46.8"/>
		<path class="st0" d="M110.2,35.6c0.2-0.1,0.4-0.3,0.6-0.4c2.5-1.4,5.5-0.5,6.8,1.9c1.4,2.5,0.5,5.5-1.9,6.8
			c-2.5,1.4-5.5,0.5-6.8-1.9c-1.1-1.9-0.7-4.2,0.6-5.7c-1.1-1.8-6.1-10.6-11.1-14.7c-2.2,3.9-4.8,7.8-7.7,11.8
			c6.1,5.4,10.8,16.6,11.1,17.1c2.3-1,5.1-0.1,6.3,2.1c0.5,0.8,0.6,1.7,0.7,2.6c3.9-3.6,7.7-6.9,11.5-9.8
			c-0.1-11.4-5.1-23.5-15-32.8c-0.6-0.5-1.2-1.1-1.8-1.7c-1.1,3.2-2.7,6.3-4.4,9.7C103.9,24.8,108.9,33.3,110.2,35.6z"/>
		<path class="st0" d="M57.6,76.8c1-1.3,2.5-3.6,3-6.5c2.8,2.1,5.3,3.4,8.4,4.8c-0.4,1.2-0.3,2.8,0.4,4c1.4,2.5,4.4,3.3,6.8,1.9
			c1.1-0.6,2-1.8,2.4-2.8c3.8,0.8,7.7,1,11.5,0.5c3.6-6.2,8.2-12.5,13.8-18.4c-1.7-0.1-3.7-1-4.7-2.8c-1.4-2.5-0.5-5.5,1.9-6.8
			l-0.4,0.1c0-0.1-4.8-11.6-10.8-16.8c-1.8,2.4-4,4.8-6.1,7.3c-1,1-1.9,2-2.7,2.9c5.6,9.3,6.6,17.7,6.9,20.1c2-0.4,4.2,0.6,5.2,2.4
			c1.4,2.5,0.5,5.5-1.9,6.8c-2.5,1.4-5.5,0.5-6.8-1.9c-1.4-2.5-0.5-5.5,1.9-6.8c0.2-0.2,0.4-0.2,0.8-0.3c-0.2-2-1.1-10.3-6.6-19.6
			c-2.4,2.4-4.8,4.7-7.2,6.6c3.6,7.9,2.7,18.1,2.5,20.1c1.1,0.4,1.9,1.1,2.7,2.2c0.7,1.2,0.9,2.7,0.3,3.9c-2.2-0.5-5.9-1.3-9.5-2.9
			c0.4-1.1,1.2-2.2,2.2-2.8c1-0.5,2.1-0.8,3.1-0.6c0.3-2.1,0.9-11.6-2.2-19.1c-3.8,3.1-7.5,5.8-11.2,8c0.9,3.9-0.4,9.1-0.6,9.3
			l0,0.2l-0.9-0.7c-0.4,2.9-2.2,5.7-3,7"/>
		<path class="st0" d="M109.3,65.2c-0.4-0.4-1-0.4-1.4,0c-0.4,0.4-0.4,1,0,1.4c17.1,16.9,15,30.6,14.9,30.7
			c-0.1,0.6,0.2,1.1,0.8,1.2c0.3,0.1,0.4,0,0.6-0.1c0.2-0.2,0.5-0.4,0.5-0.7C124.8,97.1,127.3,82.8,109.3,65.2z"/>
		<path class="st0" d="M103.1,71c-0.4,0.4-0.4,1,0,1.4c7.2,7.1,10.1,13.5,11.3,17.6c1.2,4.4,0.8,7.1,0.7,7.2
			c-0.1,0.6,0.2,1.1,0.8,1.2c0.3,0.1,0.4,0,0.6-0.1c0.2-0.2,0.5-0.4,0.5-0.7c0.1-0.4,2-12-12.5-26.6C104,70.6,103.4,70.6,103.1,71z"
			/>
		<path class="st2" d="M26.1,54.9c-1-4.8,3.9-10.1-3.8-19.5c-7.4-9.1-1.1-16.8-1.1-16.8"/>
		<path class="st3" d="M14.4,54.9c-0.8-3.8,3.1-7.9-3-15.2c-5.7-7.1-0.9-13.2-0.9-13.2"/>
		<path class="st4" d="M4.4,53.2c-0.4-2.4,2-5.1-2-9.9c-3.8-4.6-0.6-8.5-0.6-8.5"/>
		<path class="st1" d="M113.8,65.4c3.5-4.7,5.5-10.4,6.2-16.1c-4.8,3.7-9.5,7.9-13.7,12.6c-4.7,5.1-8.8,10.6-12.2,16
			c4.2-0.9,8.2-2.6,11.9-4.9c0,0,1.5-0.7,4.1-3.3C112.4,67.5,113.8,65.4,113.8,65.4z"/>
	</g>
	<g>
		<path class="st5" d="M143.4,138.9c-1.6,4.6-8.4,6.8-6.5,18.8c1.8,11.5-7.4,15.1-7.4,15.1"/>
		<path class="st6" d="M153.5,144.7c-1.2,3.7-6.6,5.3-5,14.6c1.5,9-5.8,11.9-5.8,11.9"/>
		<path class="st7" d="M161.3,151.1c-0.9,2.3-4.3,3.5-3.2,9.5c1,5.9-3.8,7.7-3.8,7.7"/>
	</g>
	<g>
		<path class="st0" d="M53.9,158.1c-5.1-8.9,0,0-5.1-8.9l-41.8,22c-2.2,1.2-3.2,3.3-2.7,5.5c0.2,0.5,0.4,1,0.7,1.4
			c1.5,2.4,5.1,3.2,7.7,1.8L53.9,158.1z"/>
		<path class="st8" d="M72.7,101.1c0,0,2.5-0.9,6.3-1.5c4.3-0.8,6.9-1,6.9-1l-4.6,7.2l7.5,2.6c0.1,0.4,0.2,0.7,0.3,1.1l-4.2,7.5
			l7.4,2.1c0,0.2,0.2,0.5,0.2,0.5l-3.9,8l7.7,0.5l0,0l-2.3,9l7.4,0.6l-2.3,8.9l7.7-0.7l-1.9,9.9l7.7-2.7l-2.3,6.3l5.6-3.8
			c-3.1,3.7-6.7,7.1-11.1,9.9c-7.6-6.5-15.6-16.4-21.6-28.5C76.5,124.3,73,111.4,72.7,101.1"/>
		<path class="st0" d="M70.4,109.3c-0.4-2.4-0.7-4.6-0.7-6.9c-0.8,0.4-1.7,0.8-2.5,1.2c-1.6,0.7-3,1.6-4.4,2.5
			c0.7,0.5,4.3,2.9,7.7,3.5C70.4,109.3,70.4,109.3,70.4,109.3z"/>
		<path class="st0" d="M89.6,98.3c1.3,9.2,4.7,19.5,9.7,29.4c5.2,10.4,11.7,19.2,18.2,25.4c7.7-11.1,9.6-24.5,3.9-36.1
			C115.6,105.3,103.4,98.7,89.6,98.3"/>
		<path class="st0" d="M76.5,165.1c0,0.2,0.2,0.5,0.2,0.7c0.4,2.8-1.5,5.3-4.1,5.7c-2.8,0.4-5.3-1.5-5.7-4.1
			c-0.4-2.8,1.5-5.3,4.1-5.7c2.3-0.3,4.1,0.8,5.1,2.5c2.1-0.3,12-2,17.6-5.3c-2.9-3.4-5.6-7.2-8.3-11.3c-7.2,3.8-19.3,4.2-19.9,4.4
			c0.1,2.5-1.6,4.9-4.2,5.2c-0.9,0.2-1.8-0.1-2.7-0.3c2.1,4.8,3.8,9.6,5.1,14.2c10.7,4,23.9,3.4,35.9-2.5c0.7-0.4,1.6-0.7,2.2-1.1
			c-2.6-2.1-5-4.8-7.5-7.5C88.8,163.1,79.1,164.7,76.5,165.1z"/>
		<path class="st0" d="M56.4,101.3c0.8,1.4,2.5,3.7,5,5.1c-2.9,1.9-5.1,3.8-7.5,6.2c-1-0.8-2.5-1.3-3.9-1c-2.8,0.4-4.5,3-4.1,5.7
			c0.2,1.4,0.9,2.5,1.9,3.2c-2.1,3.3-3.6,6.9-4.6,10.6c4.6,5.5,8.7,12,12.4,19.4c0.7-1.5,2.3-3.1,4.3-3.4c2.8-0.4,5.3,1.5,5.7,4.1
			l0-0.4c0.1,0,12.5-0.4,19.5-4.2c-1.7-2.5-3.1-5.4-4.7-8.4c-0.6-1.2-1.3-2.4-1.8-3.5c-10.7,2-18.9,0-21.3-0.7c-0.3,2-2.1,3.7-4.1,4
			c-2.8,0.4-5.3-1.5-5.7-4.1c-0.4-2.8,1.5-5.3,4.1-5.7c2.8-0.4,5.3,1.5,5.7,4.1c0.1,0.3,0.1,0.5,0,0.8c1.9,0.6,10,2.5,20.7,0.7
			c-1.5-3.1-2.6-6.2-3.6-9c-8.7,0.6-17.9-3.9-19.7-4.7c-0.7,0.9-1.7,1.4-2.9,1.7c-1.4,0.2-2.8-0.2-3.8-1c1.3-1.8,3.3-5,6.1-7.8
			c0.9,0.7,1.6,1.8,1.8,3.1c0.2,1.1-0.1,2.1-0.6,3.1c1.9,0.9,10.6,4.9,18.6,4.6c-1.5-4.6-2.7-9.1-3.5-13.3c-4-0.6-8.3-3.6-8.5-3.9
			l-0.2-0.1l0.9-0.6c-2.6-1.3-4.6-4.1-5.4-5.2"/>
		<path class="st0" d="M49.2,153.9c0.5-0.3,0.7-0.8,0.5-1.3c-0.3-0.5-0.8-0.7-1.3-0.5c-21.9,10-33.9,3.2-33.9,3.1
			c-0.5-0.3-1.1-0.1-1.4,0.3c-0.2,0.2-0.1,0.4-0.1,0.6c0.1,0.3,0.2,0.6,0.5,0.7C13.7,157.2,26.2,164.6,49.2,153.9z"/>
		<path class="st0" d="M45.8,146c-0.3-0.5-0.8-0.7-1.3-0.5c-9.2,4.2-16.2,4.7-20.5,4.3c-4.5-0.4-6.9-1.8-7-1.9
			c-0.5-0.3-1.1-0.1-1.4,0.3c-0.2,0.2-0.1,0.4-0.1,0.6c0.1,0.3,0.2,0.6,0.5,0.7c0.3,0.2,10.5,6.1,29.2-2.4
			C45.9,147.1,46.1,146.5,45.8,146z"/>
		<path class="st8" d="M47.2,158c3.2,5,7.8,8.8,12.9,11.5c-1.7-5.8-4.1-11.6-6.9-17.3c-3.2-6.2-6.8-12-10.7-17
			C42,139.5,42,143.7,43,148c0,0,0.1,1.7,1.6,5C45.8,155.9,47.2,158,47.2,158z"/>
	</g>
</g>
</svg>
