<?xml version="1.0" encoding="utf-8"?>
<!-- Generator: Adobe Illustrator 22.0.0, SVG Export Plug-In . SVG Version: 6.00 Build 0)  -->
<svg version="1.1" id="Layer_1" xmlns="http://www.w3.org/2000/svg" xmlns:xlink="http://www.w3.org/1999/xlink" x="0px" y="0px"
	 viewBox="0 0 468.7 179" style="enable-background:new 0 0 468.7 179;" xml:space="preserve">
<style type="text/css">
	.st0{fill:#DB2E3B;}
	.st1{fill:#FFFFFF;}
	
		.st2{opacity:0.8;fill:none;stroke:#DB2E3B;stroke-width:2;stroke-linecap:round;stroke-linejoin:round;stroke-miterlimit:10;enable-background:new    ;}
	
		.st3{opacity:0.8;fill:none;stroke:#DB2E3B;stroke-width:1.75;stroke-linecap:round;stroke-linejoin:round;stroke-miterlimit:10;enable-background:new    ;}
	
		.st4{opacity:0.8;fill:none;stroke:#DB2E3B;stroke-width:1.25;stroke-linecap:round;stroke-linejoin:round;stroke-miterlimit:10;enable-background:new    ;}
	.st5{enable-background:new    ;}
</style>
<g>
	<path class="st0" d="M72.4,98.6c4.6-1.8,9.2-2.8,13.9-3.1l-5.3,7.6l7.6,2.4c0.1,0.4,0.2,0.7,0.3,1.1l-4,7.6l7.5,1.9
		c0,0.2,0.2,0.4,0.2,0.5l-3.7,8.1l7.7,0.3l0,0l-2.1,9.1l7.5,0.4l-2.1,9l7.7-0.9l-1.7,10l7.6-2.9l-2.1,6.3l5.4-3.9
		c-3,3.8-6.6,7.3-10.8,10.2c-7.8-6.2-16-16-22.4-27.9C76.8,121.7,73,108.8,72.4,98.6z"/>
	<path class="st1" d="M70.3,106.8c-0.4-2.4-0.8-4.6-0.9-6.9c-0.8,0.4-1.7,0.8-2.5,1.3c-1.5,0.8-2.9,1.7-4.3,2.6
		c0.7,0.5,4.4,2.8,7.7,3.3C70.3,106.9,70.3,106.8,70.3,106.8z"/>
	<path class="st1" d="M118.6,149.4c7.4-11.2,9-24.8,2.9-36.2c-6.1-11.5-18.5-17.8-32.3-17.9c1.5,9.2,5.2,19.3,10.5,29.2
		C105.2,134.7,111.9,143.3,118.6,149.4z"/>
	<path class="st1" d="M77.8,162.5c0,0.2,0.2,0.5,0.2,0.7c0.5,2.8-1.3,5.3-4,5.8c-2.8,0.5-5.3-1.3-5.8-4c-0.5-2.8,1.3-5.3,4-5.8
		c2.2-0.4,4.2,0.7,5.2,2.4c2.1-0.4,12-2.3,17.5-5.7c-3-3.3-5.8-7.1-8.6-11.1c-7.1,4-19.2,4.7-19.8,4.9c0.2,2.5-1.5,4.9-4,5.3
		c-0.9,0.2-1.8,0-2.7-0.2c2.2,4.8,4,9.5,5.5,14.1c10.8,3.7,23.9,2.8,35.9-3.5c0.7-0.4,1.5-0.8,2.2-1.2c-2.6-2.1-5.1-4.6-7.7-7.3
		C90.1,160.1,80.5,162,77.8,162.5z"/>
	<path class="st1" d="M48.4,156.2c3.3,4.9,8,8.6,13.2,11.1c-1.9-5.7-4.4-11.5-7.4-17.1c-3.3-6.1-7.1-11.8-11.1-16.7
		c-0.5,4.3-0.3,8.6,0.7,12.8L2.9,168.7c-2.1,1.2-3.2,3.5-2.8,5.8c0.1,0.6,0.3,1.1,0.6,1.6c1.4,2.7,4.8,3.7,7.4,2.2L48.4,156.2z"/>
	<path class="st1" d="M60.7,145c2.8-0.5,5.3,1.3,5.8,4v-0.5c0.1,0,12.5-0.8,19.4-4.7c-1.7-2.5-3.3-5.3-4.9-8.2
		c-0.6-1.2-1.3-2.4-1.9-3.5c-10.6,2.3-18.9,0.5-21.3-0.1c-0.3,2-1.9,3.7-4,4.1c-2.8,0.5-5.3-1.3-5.8-4c-0.5-2.8,1.3-5.3,4-5.8
		c2.8-0.5,5.3,1.3,5.8,4c0.1,0.3,0.1,0.5,0,0.8c1.9,0.5,10.1,2.3,20.7,0.2c-1.5-3.1-2.8-6.1-3.9-9c-8.7,0.8-18-3.4-19.8-4.2
		c-0.7,0.9-1.7,1.5-2.9,1.8c-1.4,0.3-2.8-0.1-3.8-0.9c1.2-1.9,3.1-5.1,5.9-8c0.9,0.7,1.7,1.8,1.9,3c0.2,1.1,0,2.2-0.5,3.1
		c1.9,0.9,10.7,4.6,18.8,4.1c-1.7-4.6-3-9-3.9-13.2c-4-0.5-8.4-3.4-8.6-3.6l-0.2-0.1l0.9-0.7c-2.6-1.3-4.7-3.9-5.6-5.1
		c0.6-1,0.9-2.3,0.7-3.6c-0.5-2.8-3.1-4.5-5.8-4c-2.8,0.5-4.5,3.1-4,5.8c0.5,2.8,3.1,4.5,5.8,4c1-0.2,1.9-0.7,2.6-1.4
		c0.9,1.4,2.6,3.6,5.1,5c-2.9,2-5,3.9-7.3,6.4c-1.1-0.8-2.5-1.2-3.9-0.9c-2.8,0.5-4.5,3.1-4,5.8c0.2,1.3,1,2.5,1.9,3.2
		c-2,3.4-3.5,7-4.3,10.7c4.7,5.4,9.1,11.8,12.9,19C57.2,146.9,58.7,145.4,60.7,145z"/>
	<path class="st1" d="M50.2,152c0.5-0.3,0.7-0.8,0.5-1.3c-0.3-0.5-0.8-0.7-1.3-0.5c-21.6,10.6-33.8,4.1-33.9,4
		c-0.5-0.3-1.1-0.1-1.4,0.4c-0.2,0.2-0.1,0.4-0.1,0.6c0.1,0.3,0.2,0.6,0.5,0.7C14.9,156.2,27.6,163.2,50.2,152z"/>
	<path class="st1" d="M46.7,144.2c-0.3-0.5-0.8-0.7-1.3-0.5c-9.1,4.5-16,5.1-20.4,4.9c-4.5-0.3-7-1.6-7-1.7
		c-0.5-0.3-1.1-0.1-1.4,0.4c-0.2,0.2-0.1,0.4-0.1,0.6c0.1,0.3,0.2,0.6,0.5,0.7c0.4,0.2,10.7,5.9,29.2-3.2
		C46.8,145.3,47,144.7,46.7,144.2z"/>
	<path class="st0" d="M87.6,40.2c9.2-11,15.5-22.9,18.1-32.8c-4.2-2.7-8.5-4.6-12.9-5.8l3.7,8.5l-7.9,0.8c-0.1,0.3-0.4,0.7-0.5,1
		l2.4,8.2l-7.7,0.3c-0.1,0.2-0.2,0.3-0.3,0.5l1.9,8.7l-7.5-1.3l0,0l0.2,9.4l-7.5-1.1l0.3,9.3l-7.3-2.4l-0.2,10.1l-6.8-4.3l0.7,6.6
		L51.8,51c2.1,4.3,5,8.5,8.6,12.2C69,58.6,78.9,50.7,87.6,40.2z"/>
	<path class="st1" d="M108.3,9.2c-0.6,2.2-1.3,4.3-2.2,6.5c0,0.1-0.1,0.1-0.1,0.2c3.4,0.1,7.5-1.4,8.2-1.7c-1.2-1.2-2.4-2.3-3.7-3.3
		C109.8,10.4,109,9.8,108.3,9.2z"/>
	<path class="st1" d="M73.6,27.4c7.2-8.6,12.7-17.8,16.1-26.5c-13.4-2.7-26.9,1-35.1,11c-8.2,9.9-9.3,23.6-4.3,36.1
		C58.1,43.4,66.3,36.3,73.6,27.4z"/>
	<path class="st1" d="M106.9,64.8c-0.8,0.1-1.8,0-2.7-0.2c-2.4-0.9-3.6-3.6-2.9-6c-0.6-0.2-12.4-3.3-18.5-8.7
		c-3.5,3.5-7,6.6-10.6,9.3c4.6,4.4,14,8.3,16,9c1.3-1.5,3.6-2.1,5.5-1.3c2.5,1,3.8,3.9,2.7,6.5c-1,2.5-3.9,3.8-6.5,2.7
		c-2.5-1-3.8-3.9-2.7-6.5c0.1-0.2,0.2-0.4,0.4-0.6c-2.4-1-11.5-4.7-16.1-9.3c-3,2.2-6.1,4.2-9,5.6c0.7,0.6,1.2,1.1,1.9,1.7
		c10.4,8.5,23.1,12.1,34.4,10.6C101,73.3,103.8,69.1,106.9,64.8z"/>
	<path class="st1" d="M102.6,76.9c5.7-1.4,10.9-4.2,15.2-8.2l35.1,29.5c2.3,1.9,5.8,1.6,7.8-0.7c0.3-0.5,0.7-0.9,0.9-1.5
		c0.9-2.1,0.3-4.7-1.6-6.3l-35.7-30.1c1.8-3.9,2.9-8.1,3.2-12.4c-4.9,4-9.7,8.8-14.2,14.2C109.1,66.5,105.5,71.7,102.6,76.9z"/>
	<path class="st1" d="M120.7,6.8c-0.5,1.2-0.4,2.5,0,3.6c-1.2,1-3.8,3.1-6.6,3.8l0.7,0.8l-0.2,0.1c-0.2,0.1-5.1,2.1-9.1,1.8
		c-1.7,4-3.8,8.1-6.4,12.2c7.8,2.2,17.2,0.2,19.3-0.2c-0.3-1-0.3-2.1,0.2-3.2c0.5-1.2,1.4-2.1,2.4-2.6c2.1,3.5,3.4,6.9,4.2,9
		c-1.2,0.6-2.6,0.7-3.9,0.1c-1.2-0.5-2-1.3-2.6-2.3c-1.8,0.4-11.8,2.7-20.2,0.2c-1.7,2.7-3.6,5.4-5.6,8.1c10,4.2,18.4,4,20.3,3.9
		c0-0.2,0.1-0.5,0.2-0.7c1-2.5,3.9-3.8,6.5-2.7c2.5,1,3.8,3.9,2.7,6.5c-1,2.5-3.9,3.8-6.5,2.7c-2-0.8-3.2-2.8-3.1-4.8
		c-2.4,0.1-10.9,0.1-20.8-4.2c-0.8,1-1.7,2.1-2.5,3.1c-2,2.5-4.2,4.8-6.3,7.1c6.1,5.3,17.9,8.4,18,8.4l-0.1,0.5
		c1-2.5,3.9-3.8,6.5-2.7c1.8,0.8,3,2.4,3.1,4.2c5.2-6.2,10.8-11.6,16.5-16c-0.2-3.7-0.8-7.6-2.1-11.3c1-0.5,2-1.5,2.5-2.7
		c1-2.5-0.2-5.4-2.7-6.5c-1.4-0.5-2.8-0.4-4,0.1c-1.8-2.9-3.4-5.1-5.8-7.7c2.8-0.9,4.9-2.8,6-3.9c0.5,0.8,1.3,1.4,2.2,1.8
		c2.5,1,5.4-0.2,6.5-2.7s-0.3-5.5-2.8-6.5C124.7,3.1,121.8,4.3,120.7,6.8z"/>
	<path class="st2" d="M26,38.8c2.1,4.4,9.1,5.7,8.6,17.9c-0.5,11.6,9.3,14.1,9.3,14.1"/>
	<path class="st3" d="M16.6,45.8c1.6,3.5,7.1,4.5,6.8,14c-0.4,9.1,7.2,11,7.2,11"/>
	<path class="st4" d="M9.7,53.2c1.1,2.3,4.7,2.9,4.4,9.1c-0.2,5.9,4.7,7.2,4.7,7.2"/>
	<path class="st2" d="M142,126.4c-1.7,4.6-8.6,6.5-7,18.6c1.5,11.6-7.9,14.9-7.9,14.9"/>
	<path class="st3" d="M152,132.5c-1.3,3.6-6.7,5.1-5.4,14.5c1.2,9-6.2,11.7-6.2,11.7"/>
	<path class="st4" d="M159.6,139.2c-0.9,2.3-4.4,3.3-3.5,9.5c0.8,5.9-4,7.6-4,7.6"/>
</g>
<g class="st5">
	<path class="st1" d="M229.7,58.8c2-0.9,3.9-1.5,5.6-1.9s3.3-0.6,4.7-0.6c3.1,0,5.2,0.9,6.3,2.7s1.6,6.8,1.6,15.1
		c0,15.9-1.8,27-5.3,33.6s-9.4,9.8-17.6,9.8c-3.1,0-5.6-0.6-7.3-1.8s-2.6-2.9-2.6-5.1c0-1,0.3-2.1,0.8-3.2c0.5-1.1,1.4-2.4,2.6-3.9
		c1,0.9,2,1.5,3,1.9s2.1,0.6,3.1,0.6c3.1,0,5.2-1.3,6.4-4s1.8-7.9,1.8-15.6c0-7-0.3-12.7-0.8-17S230.8,61.4,229.7,58.8z"/>
	<path class="st1" d="M274.4,113.8c-1.7,0.8-3.3,1.4-4.9,1.8s-3.3,0.6-5,0.6c-2.2,0-3.7-0.5-4.6-1.4s-1.4-2.6-1.4-4.9
		c0-0.9,0.1-3.5,0.4-7.7s0.4-8.1,0.4-11.4c0-3.4-0.2-6.3-0.5-8.6s-0.8-4.1-1.5-5.6c1.7-0.8,3.3-1.4,4.9-1.8s3.3-0.6,4.9-0.6
		c2.1,0,3.7,0.5,4.6,1.5s1.4,2.6,1.4,4.8c0,1.4-0.1,4.3-0.4,8.7s-0.4,8-0.4,11c0,3,0.2,5.6,0.5,7.8S273.7,112,274.4,113.8z
		 M267,54.1c2,0,3.6,0.6,4.9,1.9s1.9,2.8,1.9,4.7c0,2.1-0.8,3.8-2.3,5.3s-3.5,2.2-5.7,2.2c-2,0-3.6-0.6-4.8-1.8s-1.8-2.7-1.8-4.6
		c0-2.1,0.8-3.9,2.3-5.4S264.8,54.1,267,54.1z"/>
	<path class="st1" d="M321.6,71.4c0.8,0.8,1.4,1.5,1.8,2.3s0.6,1.5,0.6,2.3c0,1.4-0.6,2.5-1.7,3.3s-3.2,1.5-6,1.9
		c0.8,1,1.4,2.1,1.9,3.3s0.6,2.4,0.6,3.7c0,4.3-1.6,7.7-4.9,10.2s-7.7,3.7-13.4,3.7c-0.9,0-1.6,0-2,0s-0.8-0.1-1.2-0.1
		c-0.4,0.5-0.7,0.9-0.9,1.3s-0.3,0.8-0.3,1.1c0,1.8,3.2,3.2,9.6,4.3c0.1,0,0.1,0,0.1,0c6.3,1.1,10.6,2.5,12.9,4.1s3.3,4,3.3,7.2
		c0,4.4-2.1,8.1-6.3,10.9s-9.7,4.2-16.5,4.2c-6.3,0-11.2-1.1-14.8-3.4s-5.3-5.5-5.3-9.6c0-2.5,0.7-4.7,2.2-6.6s3.6-3.5,6.3-4.6
		c-0.7-0.5-1.3-1-1.6-1.7s-0.5-1.4-0.5-2.3c0-1,0.3-2.1,1-3.3s1.7-2.4,3.1-3.7c-2.6-1.4-4.5-3-5.8-5s-1.9-4.1-1.9-6.6
		c0-4.2,1.7-7.8,5.2-10.6s7.8-4.3,13.1-4.3c1.8,0,3.6,0.2,5.3,0.6s3.4,1,5.1,1.9c3-0.8,5.4-1.5,7.2-2.3S320.8,72.2,321.6,71.4z
		 M296,115.1c-1.6,0.7-2.9,1.6-3.7,2.5s-1.3,2-1.3,3.2c0,1.8,0.9,3.3,2.6,4.4s4,1.7,6.9,1.7c2.8,0,5-0.5,6.6-1.5s2.5-2.2,2.5-3.8
		c0-2.1-3.5-4-10.6-5.7C297.7,115.5,296.7,115.3,296,115.1z M300.5,81.9c-2.2,0-3.9,0.6-5.3,1.7s-2,2.6-2,4.5c0,1.7,0.7,3.2,2,4.3
		s3.1,1.7,5.1,1.7c2.1,0,3.8-0.6,5.1-1.7s2-2.6,2-4.3c0-1.8-0.6-3.3-1.9-4.5S302.6,81.9,300.5,81.9z"/>
	<path class="st1" d="M366.1,71.4c0.8,0.8,1.4,1.5,1.8,2.3s0.6,1.5,0.6,2.3c0,1.4-0.6,2.5-1.7,3.3s-3.2,1.5-6,1.9
		c0.8,1,1.4,2.1,1.9,3.3s0.6,2.4,0.6,3.7c0,4.3-1.6,7.7-4.9,10.2s-7.7,3.7-13.4,3.7c-0.9,0-1.6,0-2,0s-0.8-0.1-1.2-0.1
		c-0.4,0.5-0.7,0.9-0.9,1.3s-0.3,0.8-0.3,1.1c0,1.8,3.2,3.2,9.6,4.3c0.1,0,0.1,0,0.1,0c6.3,1.1,10.6,2.5,12.9,4.1s3.3,4,3.3,7.2
		c0,4.4-2.1,8.1-6.3,10.9s-9.7,4.2-16.5,4.2c-6.3,0-11.2-1.1-14.8-3.4s-5.3-5.5-5.3-9.6c0-2.5,0.7-4.7,2.2-6.6s3.6-3.5,6.3-4.6
		c-0.7-0.5-1.3-1-1.6-1.7s-0.5-1.4-0.5-2.3c0-1,0.3-2.1,1-3.3s1.7-2.4,3.1-3.7c-2.6-1.4-4.5-3-5.8-5s-1.9-4.1-1.9-6.6
		c0-4.2,1.7-7.8,5.2-10.6s7.8-4.3,13.1-4.3c1.8,0,3.6,0.2,5.3,0.6s3.4,1,5.1,1.9c3-0.8,5.4-1.5,7.2-2.3S365.3,72.2,366.1,71.4z
		 M340.5,115.1c-1.6,0.7-2.9,1.6-3.7,2.5s-1.3,2-1.3,3.2c0,1.8,0.9,3.3,2.6,4.4s4,1.7,6.9,1.7c2.8,0,5-0.5,6.6-1.5s2.5-2.2,2.5-3.8
		c0-2.1-3.5-4-10.6-5.7C342.2,115.5,341.2,115.3,340.5,115.1z M345,81.9c-2.2,0-3.9,0.6-5.3,1.7s-2,2.6-2,4.5c0,1.7,0.7,3.2,2,4.3
		s3.1,1.7,5.1,1.7c2.1,0,3.8-0.6,5.1-1.7s2-2.6,2-4.3c0-1.8-0.6-3.3-1.9-4.5S347.1,81.9,345,81.9z"/>
	<path class="st1" d="M388.5,113.8c-1.9,0.8-3.7,1.3-5.3,1.7s-3.2,0.6-4.6,0.6c-2.3,0-3.9-0.5-4.7-1.6s-1.3-3.2-1.3-6.4
		c0-0.8,0.2-4.8,0.5-12s0.5-13.9,0.5-20.2c0-5.3-0.2-9.3-0.6-12.1s-1-5-1.9-6.7c1.8-0.8,3.4-1.4,5-1.8s3.2-0.6,4.8-0.6
		c2.2,0,3.7,0.5,4.6,1.6s1.4,2.8,1.4,5.2c0,1-0.2,4.8-0.5,11.4s-0.5,12.6-0.5,18c0,6.6,0.2,11.6,0.5,15S387.6,112,388.5,113.8z"/>
	<path class="st1" d="M430.5,104.4c0.9,1,1.6,2,2,2.8s0.7,1.7,0.7,2.5c0,2.2-1.3,3.8-3.8,5.1s-6.1,1.8-10.6,1.8
		c-7.6,0-13.4-1.8-17.5-5.5s-6.1-8.8-6.1-15.6c0-6.5,2.1-11.8,6.2-15.8s9.6-6.1,16.3-6.1c5.5,0,9.9,1.4,13.3,4.2s5.1,6.4,5.1,10.8
		c0,3.6-1.2,6.1-3.7,7.6s-6.8,2.2-13.1,2.2c-1.9,0-3.8-0.1-5.8-0.2s-3.8-0.3-5.7-0.6v0.2c0,3.1,1,5.5,3.1,7.2s5.1,2.5,9,2.5
		c2.3,0,4.3-0.3,6.1-0.8S429.3,105.4,430.5,104.4z M408.3,91.1c2.2,0.2,4,0.4,5.5,0.5s2.7,0.2,3.7,0.2c2.4,0,3.9-0.2,4.8-0.7
		s1.2-1.3,1.2-2.6c0-1.9-0.6-3.5-1.8-4.6s-2.8-1.7-4.8-1.7c-2.3,0-4.2,0.8-5.7,2.3S408.7,88.2,408.3,91.1z"/>
	<path class="st1" d="M443.4,106.1c1.1,0.6,2.2,1,3.3,1.3s2.2,0.4,3.4,0.4c1.6,0,2.9-0.3,3.8-0.9s1.5-1.4,1.5-2.4
		c0-1.2-1.6-2.9-4.9-5c-0.7-0.5-1.3-0.8-1.7-1.1c-2.8-1.9-4.7-3.5-5.7-5s-1.5-3.2-1.5-5.2c0-4.1,1.9-7.6,5.6-10.5s8.3-4.4,13.6-4.4
		c2,0,3.6,0.4,4.6,1.2s1.6,2,1.6,3.5c0,0.9-0.2,1.9-0.6,2.9s-1.1,2-1.9,3c-0.8-0.4-1.7-0.7-2.6-0.9s-1.8-0.3-2.6-0.3
		c-1.8,0-3.3,0.4-4.4,1.1s-1.7,1.6-1.7,2.7c0,0.7,0.3,1.4,0.9,2.1s1.5,1.6,2.9,2.7c0.4,0.3,1,0.7,1.7,1.3c5.3,3.9,7.9,7.5,7.9,10.7
		c0,4-1.7,7.3-5.2,10s-7.9,4.1-13.2,4.1c-2.4,0-4.2-0.4-5.4-1.3s-1.8-2.2-1.8-3.9c0-0.9,0.2-1.8,0.6-2.8S442.6,107.2,443.4,106.1z"
		/>
</g>
</svg>
