<?xml version="1.0" encoding="utf-8"?>
<!-- Generator: Adobe Illustrator 22.0.0, SVG Export Plug-In . SVG Version: 6.00 Build 0)  -->
<svg version="1.1" id="Layer_1" xmlns="http://www.w3.org/2000/svg" xmlns:xlink="http://www.w3.org/1999/xlink" x="0px" y="0px"
	 viewBox="0 0 256 256" style="enable-background:new 0 0 256 256;" xml:space="preserve">
<style type="text/css">
	.st0{fill:#DB2E3B;}
	.st1{fill:#29A369;}
	
		.st2{opacity:0.8;fill:none;stroke:#DB2E3B;stroke-width:2;stroke-linecap:round;stroke-linejoin:round;stroke-miterlimit:10;enable-background:new    ;}
	
		.st3{opacity:0.8;fill:none;stroke:#DB2E3B;stroke-width:1.75;stroke-linecap:round;stroke-linejoin:round;stroke-miterlimit:10;enable-background:new    ;}
	
		.st4{opacity:0.8;fill:none;stroke:#DB2E3B;stroke-width:1.25;stroke-linecap:round;stroke-linejoin:round;stroke-miterlimit:10;enable-background:new    ;}
	.st5{fill:#22895D;}
</style>
<g>
	<path class="st0" d="M130.1,58.9c13.6-17.2,22.4-35.4,25.6-50.3c-7-3.6-14.1-6-21.3-7.4l6.8,12.2l-12.6,1.9
		c-0.1,0.5-0.6,1.1-0.7,1.5l4.7,11.9l-12.3,1.2c-0.1,0.3-0.3,0.5-0.4,0.8l3.9,12.7l-12.1-1.2l0,0l1.3,13.9l-12.1-0.9l1.4,13.7
		l-11.9-2.9l0.7,15l-11.3-5.7l1.8,9.7l-7.7-6.8c3.8,6.2,8.9,12.1,15,17.2C102.2,87.9,117.2,75.3,130.1,58.9z"/>
	<path class="st1" d="M160,11.1c-0.7,3.3-1.6,6.5-2.9,9.8c0,0.1-0.1,0.2-0.1,0.3c5.5-0.2,11.9-2.8,13-3.3c-2-1.7-4.1-3.2-6.3-4.5
		C162.5,12.7,161.2,11.9,160,11.1z"/>
	<path class="st1" d="M106.3,41.3c10.6-13.4,18.5-27.6,23-40.7c-21.7-2.7-43,4-55.1,19.6C62.2,35.6,61.9,56,71.2,74
		C83.2,66.5,95.6,55.2,106.3,41.3z"/>
	<path class="st1" d="M163.5,93.5c-1.3,0.2-2.9,0.2-4.3,0c-3.9-1.1-6.1-5-5.3-8.6c-1-0.2-20.2-3.7-30.5-11.1
		c-5.2,5.5-10.5,10.4-16,14.8c7.8,6.1,23.3,10.9,26.5,11.8c1.9-2.3,5.5-3.5,8.7-2.4c4.1,1.2,6.5,5.4,5,9.4c-1.3,3.8-5.9,6-10.1,4.6
		c-4.1-1.2-6.5-5.4-5-9.4c0.1-0.3,0.3-0.6,0.6-0.9c-3.9-1.3-18.9-5.9-26.7-12.2c-4.6,3.5-9.3,6.8-13.8,9.1c1.2,0.8,2,1.5,3.2,2.3
		c17.5,11.6,38.2,15.7,56.2,12.4C154.9,106.6,159,100.2,163.5,93.5z"/>
	<path class="st1" d="M157.9,111.8c9-2.6,17-7.3,23.5-13.6l59.2,40.3c3.9,2.6,9.5,1.8,12.4-1.8c0.4-0.8,1-1.4,1.3-2.3
		c1.2-3.2,0-7-3.2-9.2l-60.3-41.1c2.5-5.9,3.8-12.3,3.8-18.7c-7.4,6.4-14.6,13.9-21.3,22.4C167.2,95.8,162,103.8,157.9,111.8z"/>
	<path class="st1" d="M179.6,6.4c-0.7,1.8-0.4,3.7,0.4,5.3c-1.8,1.6-5.8,4.9-10.2,6.3l1.2,1.1l-0.3,0.2c-0.3,0.2-7.9,3.6-14.4,3.5
		c-2.3,6.1-5.2,12.3-9,18.7c12.7,2.5,27.6-1.3,30.9-2.1c-0.6-1.5-0.7-3.1,0-4.8c0.7-1.8,2-3.2,3.6-4.1c3.7,5,6.2,9.9,7.7,12.9
		c-1.9,1-4.1,1.3-6.2,0.5c-2-0.6-3.3-1.7-4.4-3.2c-2.8,0.8-18.6,5.1-32.3,2.2c-2.4,4.2-5.2,8.3-8.1,12.5c16.4,5.3,29.9,4.2,32.9,3.8
		c0-0.3,0.1-0.7,0.2-1.1c1.3-3.8,5.9-6,10.1-4.6c4.1,1.2,6.5,5.4,5,9.4c-1.3,3.8-5.9,6-10.1,4.6c-3.3-1-5.4-3.8-5.5-6.8
		c-3.8,0.4-17.4,1.2-33.7-4.2c-1.2,1.6-2.5,3.3-3.7,4.8c-2.9,3.9-6.2,7.5-9.4,11.1c10.3,7.3,29.5,10.7,29.7,10.7l-0.1,0.7
		c1.3-3.8,5.9-6,10.1-4.6c3,1,5.1,3.3,5.4,5.9c7.7-9.7,16.1-18.2,24.8-25.3c-0.7-5.5-2.1-11.2-4.5-16.5c1.5-0.8,3-2.4,3.7-4.2
		c1.3-3.8-0.9-8-5-9.4c-2.3-0.6-4.5-0.3-6.4,0.5c-3.2-4.1-6-7.2-10.1-10.8c4.4-1.6,7.6-4.6,9.2-6.3c0.9,1.1,2.2,1.9,3.7,2.5
		c4.1,1.2,8.6-0.8,10.1-4.6s-1-8.1-5.2-9.4C185.6,0.5,181.1,2.6,179.6,6.4z"/>
	<path class="st2" d="M31.3,62.7c3.8,6.3,15.2,7.6,15.6,25.7c0.4,17.2,16.3,20,16.3,20"/>
	<path class="st3" d="M17,74c2.9,5,11.8,6,12.3,20.1c0.3,13.5,12.7,15.6,12.7,15.6"/>
	<path class="st4" d="M6.7,85.6c2,3.3,7.8,3.8,8,13c0.3,8.7,8.3,10.2,8.3,10.2"/>
</g>
<g>
	<path class="st0" d="M116.1,136.8c7.4-2.7,14.8-4.2,22.3-4.6l-8.5,11.3l12.2,3.6c0.2,0.6,0.3,1,0.5,1.6l-6.4,11.3l12,2.8
		c0,0.3,0.3,0.6,0.3,0.7l-5.9,12l12.4,0.4l0,0l-3.4,13.5l12,0.6l-3.4,13.3l12.4-1.3l-2.7,14.8l12.2-4.3l-3.4,9.3l8.7-5.8
		c-4.8,5.6-10.6,10.8-17.3,15.1c-12.5-9.2-25.7-23.7-35.9-41.4C123.2,171,117.1,151.9,116.1,136.8z"/>
	<path class="st1" d="M112.7,148.9c-0.6-3.6-1.3-6.8-1.4-10.2c-1.3,0.6-2.7,1.2-4,1.9c-2.4,1.2-4.7,2.5-6.9,3.9
		c1.1,0.7,7.1,4.2,12.4,4.9C112.7,149.1,112.7,148.9,112.7,148.9z"/>
	<path class="st1" d="M190.2,212.1c11.9-16.6,14.4-36.8,4.7-53.7c-9.8-17.1-29.7-26.4-51.8-26.5c2.4,13.6,8.3,28.6,16.8,43.3
		C168.7,190.3,179.5,203.1,190.2,212.1z"/>
	<path class="st1" d="M124.8,231.5c0,0.3,0.3,0.7,0.3,1c0.8,4.2-2.1,7.9-6.4,8.6c-4.5,0.7-8.5-1.9-9.3-5.9c-0.8-4.2,2.1-7.9,6.4-8.6
		c3.5-0.6,6.7,1,8.3,3.6c3.4-0.6,19.3-3.4,28.1-8.5c-4.8-4.9-9.3-10.5-13.8-16.5c-11.4,5.9-30.8,7-31.8,7.3c0.3,3.7-2.4,7.3-6.4,7.9
		c-1.4,0.3-2.9,0-4.3-0.3c3.5,7.1,6.4,14.1,8.8,20.9c17.3,5.5,38.3,4.2,57.6-5.2c1.1-0.6,2.4-1.2,3.5-1.8
		c-4.2-3.1-8.2-6.8-12.4-10.8C144.5,228,129.1,230.8,124.8,231.5z"/>
	<path class="st1" d="M77.6,222.2c5.3,7.3,12.8,12.8,21.2,16.5c-3-8.5-7.1-17.1-11.9-25.4c-5.3-9-11.4-17.5-17.8-24.8
		c-0.8,6.4-0.5,12.8,1.1,19L4.6,240.7c-3.4,1.8-5.1,5.2-4.5,8.6c0.2,0.9,0.5,1.6,1,2.4c2.2,4,7.7,5.5,11.9,3.3L77.6,222.2z"/>
	<path class="st1" d="M97.3,205.6c4.5-0.7,8.5,1.9,9.3,5.9v-0.7c0.2,0,20.1-1.2,31.1-7c-2.7-3.7-5.3-7.9-7.9-12.2
		c-1-1.8-2.1-3.6-3-5.2c-17,3.4-30.3,0.7-34.2-0.1c-0.5,3-3,5.5-6.4,6.1c-4.5,0.7-8.5-1.9-9.3-5.9c-0.8-4.2,2.1-7.9,6.4-8.6
		c4.5-0.7,8.5,1.9,9.3,5.9c0.2,0.4,0.2,0.7,0,1.2c3,0.7,16.2,3.4,33.2,0.3c-2.4-4.6-4.5-9-6.3-13.3c-14,1.2-28.9-5-31.8-6.2
		c-1.1,1.3-2.7,2.2-4.7,2.7c-2.2,0.4-4.5-0.1-6.1-1.3c1.9-2.8,5-7.6,9.5-11.9c1.4,1,2.7,2.7,3,4.4c0.3,1.6,0,3.3-0.8,4.6
		c3,1.3,17.2,6.8,30.2,6.1c-2.7-6.8-4.8-13.3-6.3-19.6c-6.4-0.7-13.5-5-13.8-5.3l-0.3-0.1l1.4-1c-4.2-1.9-7.5-5.8-9-7.6
		c1-1.5,1.4-3.4,1.1-5.3c-0.8-4.2-5-6.7-9.3-5.9c-4.5,0.7-7.2,4.6-6.4,8.6c0.8,4.2,5,6.7,9.3,5.9c1.6-0.3,3-1,4.2-2.1
		c1.4,2.1,4.2,5.3,8.2,7.4c-4.7,3-8,5.8-11.7,9.5c-1.8-1.2-4-1.8-6.3-1.3c-4.5,0.7-7.2,4.6-6.4,8.6c0.3,1.9,1.6,3.7,3,4.7
		c-3.2,5-5.6,10.4-6.9,15.9c7.5,8,14.6,17.5,20.7,28.2C91.7,208.4,94.1,206.2,97.3,205.6z"/>
	<path class="st5" d="M80.5,216c0.8-0.4,1.1-1.2,0.8-1.9c-0.5-0.7-1.3-1-2.1-0.7c-34.7,15.7-54.2,6.1-54.4,5.9
		c-0.8-0.4-1.8-0.1-2.2,0.6c-0.3,0.3-0.2,0.6-0.2,0.9c0.2,0.4,0.3,0.9,0.8,1C23.9,222.2,44.2,232.6,80.5,216z"/>
	<path class="st5" d="M74.9,204.4c-0.5-0.7-1.3-1-2.1-0.7c-14.6,6.7-25.7,7.6-32.7,7.3c-7.2-0.4-11.2-2.4-11.2-2.5
		c-0.8-0.4-1.8-0.1-2.2,0.6c-0.3,0.3-0.2,0.6-0.2,0.9c0.2,0.4,0.3,0.9,0.8,1c0.6,0.3,17.2,8.7,46.8-4.7
		C75,206,75.4,205.1,74.9,204.4z"/>
	<path class="st2" d="M227.8,178c-2.7,6.8-13.8,9.6-11.2,27.6c2.4,17.2-12.7,22.1-12.7,22.1"/>
	<path class="st3" d="M243.8,187.1c-2.1,5.3-10.7,7.6-8.7,21.5c1.9,13.3-9.9,17.3-9.9,17.3"/>
	<path class="st4" d="M256,197c-1.4,3.4-7.1,4.9-5.6,14.1c1.3,8.7-6.4,11.3-6.4,11.3"/>
</g>
</svg>
