<?xml version="1.0" encoding="utf-8"?>
<!-- Generator: Adobe Illustrator 22.0.0, SVG Export Plug-In . SVG Version: 6.00 Build 0)  -->
<svg version="1.1" id="Layer_1" xmlns="http://www.w3.org/2000/svg" xmlns:xlink="http://www.w3.org/1999/xlink" x="0px" y="0px"
	 viewBox="0 0 256 256" style="enable-background:new 0 0 256 256;" xml:space="preserve">
<style type="text/css">
	.st0{fill:#9D7AA5;}
	.st1{fill:#DB2E3B;}
	.st2{fill:#FFFFFF;}
	
		.st3{opacity:0.8;fill:none;stroke:#DB2E3B;stroke-width:2;stroke-linecap:round;stroke-linejoin:round;stroke-miterlimit:10;enable-background:new    ;}
	
		.st4{opacity:0.8;fill:none;stroke:#DB2E3B;stroke-width:1.75;stroke-linecap:round;stroke-linejoin:round;stroke-miterlimit:10;enable-background:new    ;}
	
		.st5{opacity:0.8;fill:none;stroke:#DB2E3B;stroke-width:1.25;stroke-linecap:round;stroke-linejoin:round;stroke-miterlimit:10;enable-background:new    ;}
</style>
<rect class="st0" width="256" height="256"/>
<g>
	<path class="st1" d="M118.4,137.1c5.1-1.8,10.2-2.8,15.4-3.1l-5.9,7.6l8.4,2.4c0.1,0.4,0.2,0.7,0.3,1.1l-4.4,7.6l8.3,1.9
		c0,0.2,0.2,0.4,0.2,0.5l-4.1,8.1l8.6,0.3l0,0l-2.3,9.2l8.3,0.4l-2.3,9.1l8.6-0.9l-1.9,10.1l8.4-2.9l-2.3,6.3l6-3.9
		c-3.3,3.8-7.3,7.3-12,10.3c-8.7-6.2-17.8-16.1-24.9-28.1C123.3,160.4,119.1,147.4,118.4,137.1z"/>
	<path class="st2" d="M116.1,145.4c-0.4-2.4-0.9-4.6-1-6.9c-0.9,0.4-1.9,0.8-2.8,1.3c-1.7,0.8-3.2,1.7-4.8,2.6
		c0.8,0.5,4.9,2.8,8.6,3.3C116.1,145.5,116.1,145.4,116.1,145.4z"/>
	<path class="st2" d="M169.7,188.2c8.2-11.3,10-24.9,3.2-36.4c-6.8-11.6-20.6-17.9-35.9-18c1.7,9.3,5.8,19.4,11.7,29.4
		C154.9,173.5,162.3,182.1,169.7,188.2z"/>
	<path class="st2" d="M124.4,201.4c0,0.2,0.2,0.5,0.2,0.7c0.6,2.8-1.4,5.3-4.4,5.8c-3.1,0.5-5.9-1.3-6.4-4c-0.6-2.8,1.4-5.3,4.4-5.8
		c2.4-0.4,4.7,0.7,5.8,2.4c2.3-0.4,13.3-2.3,19.4-5.7c-3.3-3.3-6.4-7.1-9.6-11.2c-7.9,4-21.3,4.7-22,4.9c0.2,2.5-1.7,4.9-4.4,5.3
		c-1,0.2-2,0-3-0.2c2.4,4.8,4.4,9.6,6.1,14.2c12,3.7,26.6,2.8,39.9-3.5c0.8-0.4,1.7-0.8,2.4-1.2c-2.9-2.1-5.7-4.6-8.6-7.3
		C138.1,199,127.4,200.9,124.4,201.4z"/>
	<path class="st2" d="M91.7,195.1c3.7,4.9,8.9,8.7,14.7,11.2c-2.1-5.7-4.9-11.6-8.2-17.2c-3.7-6.1-7.9-11.9-12.3-16.8
		c-0.6,4.3-0.3,8.7,0.8,12.9l-45.4,22.5c-2.3,1.2-3.6,3.5-3.1,5.8c0.1,0.6,0.3,1.1,0.7,1.6c1.6,2.7,5.3,3.7,8.2,2.2L91.7,195.1z"/>
	<path class="st2" d="M105.4,183.8c3.1-0.5,5.9,1.3,6.4,4v-0.5c0.1,0,13.9-0.8,21.6-4.7c-1.9-2.5-3.7-5.3-5.4-8.2
		c-0.7-1.2-1.4-2.4-2.1-3.5c-11.8,2.3-21,0.5-23.7-0.1c-0.3,2-2.1,3.7-4.4,4.1c-3.1,0.5-5.9-1.3-6.4-4c-0.6-2.8,1.4-5.3,4.4-5.8
		c3.1-0.5,5.9,1.3,6.4,4c0.1,0.3,0.1,0.5,0,0.8c2.1,0.5,11.2,2.3,23,0.2c-1.7-3.1-3.1-6.1-4.3-9.1c-9.7,0.8-20-3.4-22-4.2
		c-0.8,0.9-1.9,1.5-3.2,1.8c-1.6,0.3-3.1-0.1-4.2-0.9c1.3-1.9,3.4-5.1,6.6-8c1,0.7,1.9,1.8,2.1,3c0.2,1.1,0,2.2-0.6,3.1
		c2.1,0.9,11.9,4.6,20.9,4.1c-1.9-4.6-3.3-9.1-4.3-13.3c-4.4-0.5-9.3-3.4-9.6-3.6l-0.2-0.1l1-0.7c-2.9-1.3-5.2-3.9-6.2-5.1
		c0.7-1,1-2.3,0.8-3.6c-0.6-2.8-3.4-4.5-6.4-4c-3.1,0.5-5,3.1-4.4,5.8c0.6,2.8,3.4,4.5,6.4,4c1.1-0.2,2.1-0.7,2.9-1.4
		c1,1.4,2.9,3.6,5.7,5c-3.2,2-5.6,3.9-8.1,6.4c-1.2-0.8-2.8-1.2-4.3-0.9c-3.1,0.5-5,3.1-4.4,5.8c0.2,1.3,1.1,2.5,2.1,3.2
		c-2.2,3.4-3.9,7-4.8,10.8c5.2,5.4,10.1,11.9,14.3,19.1C101.5,185.7,103.2,184.2,105.4,183.8z"/>
	<path class="st2" d="M93.7,190.9c0.6-0.3,0.8-0.8,0.6-1.3c-0.3-0.5-0.9-0.7-1.4-0.5c-24,10.7-37.6,4.1-37.7,4
		c-0.6-0.3-1.2-0.1-1.6,0.4c-0.2,0.2-0.1,0.4-0.1,0.6c0.1,0.3,0.2,0.6,0.6,0.7C54.5,195.1,68.6,202.1,93.7,190.9z"/>
	<path class="st2" d="M89.9,183c-0.3-0.5-0.9-0.7-1.4-0.5c-10.1,4.5-17.8,5.1-22.7,4.9c-5-0.3-7.8-1.6-7.8-1.7
		c-0.6-0.3-1.2-0.1-1.6,0.4c-0.2,0.2-0.1,0.4-0.1,0.6c0.1,0.3,0.2,0.6,0.6,0.7c0.4,0.2,11.9,5.9,32.4-3.2
		C90,184.1,90.2,183.5,89.9,183z"/>
	<path class="st1" d="M135.3,78.4c10.2-11.1,17.2-23,20.1-33c-4.7-2.7-9.4-4.6-14.3-5.8l4.1,8.5l-8.8,0.8c-0.1,0.3-0.4,0.7-0.6,1
		l2.7,8.2l-8.6,0.3c-0.1,0.2-0.2,0.3-0.3,0.5l2.1,8.8l-8.3-1.3l0,0l0.2,9.5l-8.3-1.1l0.3,9.4l-8.1-2.4L107.3,92l-7.6-4.3l0.8,6.6
		l-5-4.9c2.3,4.3,5.6,8.5,9.6,12.3C114.6,96.9,125.6,89,135.3,78.4z"/>
	<path class="st2" d="M158.3,47.2c-0.7,2.2-1.4,4.3-2.4,6.5c0,0.1-0.1,0.1-0.1,0.2c3.8,0.1,8.3-1.4,9.1-1.7
		c-1.3-1.2-2.7-2.3-4.1-3.3C160,48.4,159.1,47.8,158.3,47.2z"/>
	<path class="st2" d="M119.7,65.5c8-8.7,14.1-17.9,17.9-26.7c-14.9-2.7-29.9,1-39,11.1c-9.1,10-10.3,23.7-4.8,36.3
		C102.5,81.6,111.6,74.5,119.7,65.5z"/>
	<path class="st2" d="M156.7,103.1c-0.9,0.1-2,0-3-0.2c-2.7-0.9-4-3.6-3.2-6c-0.7-0.2-13.8-3.3-20.6-8.8c-3.9,3.5-7.8,6.6-11.8,9.4
		c5.1,4.4,15.6,8.3,17.8,9.1c1.4-1.5,4-2.1,6.1-1.3c2.8,1,4.2,3.9,3,6.5c-1.1,2.5-4.3,3.8-7.2,2.7c-2.8-1-4.2-3.9-3-6.5
		c0.1-0.2,0.2-0.4,0.4-0.6c-2.7-1-12.8-4.7-17.9-9.4c-3.3,2.2-6.8,4.2-10,5.6c0.8,0.6,1.3,1.1,2.1,1.7c11.6,8.5,25.7,12.2,38.2,10.7
		C150.2,111.7,153.3,107.5,156.7,103.1z"/>
	<path class="st2" d="M152,115.3c6.3-1.4,12.1-4.2,16.9-8.2l39,29.7c2.6,1.9,6.4,1.6,8.7-0.7c0.3-0.5,0.8-0.9,1-1.5
		c1-2.1,0.3-4.7-1.8-6.3l-39.7-30.4c2-3.9,3.2-8.1,3.6-12.5c-5.4,4-10.8,8.9-15.8,14.3C159.2,104.9,155.2,110.1,152,115.3z"/>
	<path class="st2" d="M172.1,44.8c-0.6,1.2-0.4,2.5,0,3.6c-1.3,1-4.2,3.1-7.3,3.8l0.8,0.8l-0.2,0.1c-0.2,0.1-5.7,2.1-10.1,1.8
		c-1.9,4-4.2,8.1-7.1,12.3c8.7,2.2,19.1,0.2,21.4-0.2c-0.3-1-0.3-2.1,0.2-3.2c0.6-1.2,1.6-2.1,2.7-2.6c2.3,3.5,3.8,6.9,4.7,9.1
		c-1.3,0.6-2.9,0.7-4.3,0.1c-1.5-0.5-2.4-1.3-3-2.4c-2,0.4-13.1,2.7-22.4,0.2c-1.9,2.7-4,5.4-6.2,8.1c11.1,4.2,20.4,4,22.6,3.9
		c0-0.2,0.1-0.5,0.2-0.7c1.1-2.5,4.3-3.8,7.2-2.7c2.8,1,4.2,3.9,3,6.5c-1.1,2.5-4.3,3.8-7.2,2.7c-2.2-0.8-3.6-2.8-3.4-4.8
		c-2.7,0.1-12.1,0.1-23.1-4.2c-0.9,1-1.9,2.1-2.8,3.1c-2.2,2.5-4.7,4.8-7,7.1c6.8,5.3,19.9,8.4,20,8.4l-0.1,0.5
		c1.1-2.5,4.3-3.8,7.2-2.7c2,0.8,3.3,2.4,3.4,4.2c5.8-6.2,12-11.7,18.3-16.1c-0.2-3.7-0.9-7.6-2.3-11.4c1.1-0.5,2.2-1.5,2.8-2.7
		c1.1-2.5-0.2-5.4-3-6.5c-1.6-0.5-3.1-0.4-4.4,0.1c-2-2.9-3.8-5.1-6.4-7.7c3.1-0.9,5.4-2.8,6.7-3.9c0.6,0.8,1.4,1.4,2.4,1.8
		c2.8,1,6-0.2,7.2-2.7s-0.3-5.5-3.1-6.5C176.5,41.1,173.3,42.3,172.1,44.8z"/>
	<path class="st3" d="M66.9,77c2.3,4.4,10.1,5.7,9.6,18c-0.6,11.7,10.3,14.2,10.3,14.2"/>
	<path class="st4" d="M56.4,84c1.8,3.5,7.9,4.5,7.6,14.1c-0.4,9.2,8,11.1,8,11.1"/>
	<path class="st5" d="M48.7,91.5c1.2,2.3,5.2,2.9,4.9,9.2c-0.2,5.9,5.2,7.2,5.2,7.2"/>
	<path class="st3" d="M195.7,165.1c-1.9,4.6-9.6,6.5-7.8,18.7c1.7,11.7-8.8,15-8.8,15"/>
	<path class="st4" d="M206.9,171.2c-1.4,3.6-7.4,5.1-6,14.6c1.3,9.1-6.9,11.8-6.9,11.8"/>
	<path class="st5" d="M215.3,178c-1,2.3-4.9,3.3-3.9,9.6c0.9,5.9-4.4,7.6-4.4,7.6"/>
</g>
</svg>
