<?xml version="1.0" encoding="utf-8"?>
<!-- Generator: Adobe Illustrator 22.0.0, SVG Export Plug-In . SVG Version: 6.00 Build 0)  -->
<svg version="1.1" id="Layer_1" xmlns="http://www.w3.org/2000/svg" xmlns:xlink="http://www.w3.org/1999/xlink" x="0px" y="0px"
	 viewBox="0 0 340.2 340.2" style="enable-background:new 0 0 340.2 340.2;" xml:space="preserve">
<style type="text/css">
	.st0{clip-path:url(#SVGID_2_);}
	.st1{fill:#E7F456;}
	.st2{fill:#DFFFCC;}
	.st3{fill:#FF890E;}
	.st4{fill:#AFD374;}
	.st5{fill:#AD7489;}
	.st6{fill:#FFBC4B;}
	.st7{fill:#FFB895;}
	.st8{fill:#FF925D;}
</style>
<g id="Layer_2_1_">
	<g id="Layer_1-2">
		<g>
			<defs>
				<circle id="SVGID_1_" cx="170.1" cy="170.1" r="170.1"/>
			</defs>
			<clipPath id="SVGID_2_">
				<use xlink:href="#SVGID_1_"  style="overflow:visible;"/>
			</clipPath>
			<g class="st0">
				<polygon class="st1" points="84.9,84.6 -0.3,-0.4 84.9,-0.4 				"/>
				<polygon class="st2" points="-0.3,-0.4 84.9,84.6 -0.3,84.6 				"/>
				<polygon class="st3" points="-0.3,169.7 84.9,84.6 -0.3,84.6 				"/>
				<polygon class="st4" points="84.9,84.6 -0.3,169.7 84.9,169.7 				"/>
				<polyline class="st5" points="170.1,169.7 84.9,169.7 84.9,84.6 170.1,169.7 				"/>
				<polyline class="st6" points="170.1,169.7 84.9,84.6 170.1,84.6 				"/>
				<polyline class="st7" points="170.1,-0.4 84.9,84.6 170.1,84.6 				"/>
				<polyline class="st8" points="170.1,-0.4 84.9,-0.4 84.9,84.6 170.1,-0.4 				"/>
				<polygon class="st1" points="84.9,254.7 -0.3,169.7 84.9,169.7 				"/>
				<polygon class="st2" points="-0.3,169.7 84.9,254.7 -0.3,254.7 				"/>
				<polygon class="st3" points="-0.3,339.8 84.9,254.7 -0.3,254.7 				"/>
				<polygon class="st4" points="84.9,254.7 -0.3,339.8 84.9,339.8 				"/>
				<polyline class="st5" points="170.1,339.8 84.9,339.8 84.9,254.7 170.1,339.8 				"/>
				<polyline class="st6" points="170.1,339.8 84.9,254.7 170.1,254.7 				"/>
				<polyline class="st7" points="170.1,169.7 84.9,254.7 170.1,254.7 				"/>
				<polyline class="st8" points="170.1,169.7 84.9,169.7 84.9,254.7 170.1,169.7 				"/>
				<polygon class="st1" points="254.7,84.6 169.5,-0.4 254.7,-0.4 				"/>
				<polygon class="st2" points="169.5,-0.4 254.7,84.6 169.5,84.6 				"/>
				<polygon class="st3" points="169.5,169.7 254.7,84.6 169.5,84.6 				"/>
				<polygon class="st4" points="254.7,84.6 169.5,169.7 254.7,169.7 				"/>
				<polyline class="st5" points="339.9,169.7 254.7,169.7 254.7,84.6 339.9,169.7 				"/>
				<polyline class="st6" points="339.9,169.7 254.7,84.6 339.9,84.6 				"/>
				<polyline class="st7" points="339.9,-0.4 254.7,84.6 339.9,84.6 				"/>
				<polyline class="st8" points="339.9,-0.4 254.7,-0.4 254.7,84.6 339.9,-0.4 				"/>
				<polygon class="st1" points="254.7,254.7 169.5,169.7 254.7,169.7 				"/>
				<polygon class="st2" points="169.5,169.7 254.7,254.7 169.5,254.7 				"/>
				<polyline class="st3" points="169.5,339.8 254.7,254.7 169.5,254.7 169.5,339.8 				"/>
				<polyline class="st4" points="254.7,339.8 254.7,254.7 169.5,339.8 				"/>
				<polyline class="st5" points="254.7,339.8 254.7,254.7 339.9,339.8 				"/>
				<polyline class="st6" points="339.9,339.8 254.7,254.7 339.9,254.7 				"/>
				<polyline class="st7" points="339.9,169.7 254.7,254.7 339.9,254.7 				"/>
				<polyline class="st8" points="339.9,169.7 254.7,169.7 254.7,254.7 339.9,169.7 				"/>
			</g>
		</g>
	</g>
</g>
</svg>
