<?xml version="1.0" encoding="utf-8"?>
<!-- Generator: Adobe Illustrator 22.0.0, SVG Export Plug-In . SVG Version: 6.00 Build 0)  -->
<svg version="1.1" id="Capa_1" width="16px" height="16px" xmlns="http://www.w3.org/2000/svg" xmlns:xlink="http://www.w3.org/1999/xlink" x="0px" y="0px"
	 viewBox="0 0 52.5 52.5" style="enable-background:new 0 0 52.5 52.5;" xml:space="preserve">
<style type="text/css">
	.st0{fill:#FFFFFF;}
</style>
<g>
	<path class="st0" d="M21.5,16.1V4L1.4,24l20.1,20.1v-12c0,0,17.6-4.4,29.7,16c0,0,3-15.5-10.5-26.8C40.7,21.3,34.7,15.7,21.5,16.1z
		"/>
	<path class="st0" d="M51.7,50.9l-1.3-2.3C40.2,31.4,26,32.4,22.5,32.9v13.6L0,24L22.5,1.6v13.4c12.7-0.1,18.6,5.3,18.9,5.5
		C55.2,32,52.2,48.1,52.2,48.3L51.7,50.9z M25.6,30.7c5.8,0,16.3,1.9,24.9,14.4c0.1-4.9-0.9-15.1-10.4-23c-0.1-0.1-6-5.4-18.5-5
		l-1,0V6.4L2.8,24l17.7,17.7V31.3l0.8-0.2C21.4,31.1,23,30.7,25.6,30.7z"/>
</g>
</svg>
