<?xml version="1.0" encoding="utf-8"?>
<!-- Generator: Adobe Illustrator 22.0.0, SVG Export Plug-In . SVG Version: 6.00 Build 0)  -->
<svg version="1.1" id="Layer_1" xmlns="http://www.w3.org/2000/svg" xmlns:xlink="http://www.w3.org/1999/xlink" x="0px" y="0px"
	 viewBox="0 0 448.7 432.2" style="enable-background:new 0 0 448.7 432.2;" xml:space="preserve">
<style type="text/css">
	.st0{fill:#4080FF;}
</style>
<path class="st0" d="M12,424.5h62.1c6.6,0,12-5.4,12-12v-214c0-6.6-5.4-12-12-12H12c-6.6,0-12,5.4-12,12v214
	C0,419.1,5.4,424.5,12,424.5z"/>
<path class="st0" d="M429.7,167.2c-8-5.8-17.4-8.8-27.3-8.8v0.1H284.3c-5,0-9.1-4.1-9.1-9.1V60.7c0-25.1-6.5-42.6-19.3-52
	c-15.1-11.1-36-9.1-46.4-7.1v78.6c0,34.9-17,65.4-49.1,88.2c-22.6,16.1-44.9,22.9-47.8,23.7l-8.3,2.8v190.2
	c0,26,21.1,47.1,47.1,47.1h209.8c24.8,0,55.3-8.4,60.2-48.2c0-0.1,0-0.2,0-0.3l26.7-170.3C451,195.4,443.7,177.3,429.7,167.2z"/>
</svg>
