<?xml version="1.0" encoding="utf-8"?>
<!-- Generator: Adobe Illustrator 22.0.0, SVG Export Plug-In . SVG Version: 6.00 Build 0)  -->
<svg version="1.1" id="Capa_1" xmlns="http://www.w3.org/2000/svg" xmlns:xlink="http://www.w3.org/1999/xlink" x="0px" y="0px"
	 viewBox="0 0 507.7 512" style="enable-background:new 0 0 507.7 512;" xml:space="preserve">
<style type="text/css">
	.st0{fill:#FFFFFF;}
</style>
<g>
	<g>
		<path class="st0" d="M414.3,325.4c-29.6,0-55.8,14.1-72.9,35.7l-158.4-81c2.1-7.7,3.6-15.7,3.6-24.1c0-9.2-1.8-17.8-4.2-26.2
			l157.7-80.7c17,22.6,43.8,37.4,74.3,37.4c51.6,0,93.3-41.7,93.3-93.3c0-51.5-41.7-93.3-93.3-93.3c-51.5,0-93.3,41.8-93.3,93.3
			c0,8.4,1.5,16.5,3.6,24.2l-158.4,81c-17.1-21.6-43.3-35.8-73-35.8C41.7,162.7,0,204.5,0,256s41.7,93.3,93.3,93.3
			c30.5,0,57.3-14.8,74.4-37.4l157.7,80.7c-2.5,8.4-4.3,17.1-4.3,26.2c0,51.5,41.8,93.3,93.3,93.3c51.6,0,93.3-41.8,93.3-93.3
			C507.6,367.1,465.9,325.4,414.3,325.4z"/>
	</g>
</g>
</svg>
